<svg xmlns="http://www.w3.org/2000/svg" xmlns:xlink="http://www.w3.org/1999/xlink" version="1.1" x="0px" y="0px" viewBox="0 0 504 629.9725" style="enable-background:new 0 0 504 503.978;" xml:space="preserve"><g><path d="M293.02,179.657c2.629,0,4.974-1.233,6.487-3.152c0.138,0.002,0.275,0.011,0.413,0.011c0.503,0,1.006-0.015,1.504-0.045   c2.5-0.134,4.785-0.638,6.791-1.497c2.031-0.87,2.972-3.222,2.102-5.252c-0.871-2.031-3.222-2.971-5.252-2.102   c-0.939,0.402-2.084,0.668-3.344,0.796c0.66-0.545,1.272-1.143,1.786-1.821c1.336-1.76,0.993-4.269-0.767-5.604   c-1.762-1.335-4.27-0.992-5.604,0.767c-0.177,0.233-0.382,0.434-0.643,0.628c-1.118,0.837-2.642,0.741-3.462,0.688   c-0.269-0.017-0.482-0.026-0.63-0.026c-0.648,0-1.254,0.168-1.799,0.442c-3.381,1.035-5.842,4.182-5.842,7.908   C284.76,175.957,288.46,179.657,293.02,179.657z"/><path d="M229.385,163.485c-0.539-0.271-1.14-0.438-1.785-0.438c-0.147,0-0.361,0.01-0.63,0.026   c-0.818,0.053-2.343,0.15-3.479-0.701c-0.243-0.181-0.448-0.381-0.625-0.614c-1.336-1.759-3.844-2.102-5.604-0.767   c-1.76,1.336-2.103,3.845-0.767,5.604c0.509,0.67,1.11,1.26,1.753,1.794c-1.301-0.122-2.421-0.369-3.247-0.741   c-2.013-0.905-4.383-0.007-5.288,2.009s-0.006,4.383,2.009,5.288c1.903,0.855,4.209,1.358,6.859,1.496   c0.423,0.021,0.863,0.032,1.315,0.032c0.183,0,0.374-0.009,0.56-0.012c1.514,1.944,3.875,3.195,6.524,3.195   c4.56,0,8.26-3.7,8.26-8.26C235.24,167.665,232.772,164.516,229.385,163.485z"/><path d="M288.563,148.083c1.88,0.458,3.755,0.648,5.578,0.648c8.932,0,16.586-4.585,16.97-4.818   c1.887-1.149,2.485-3.61,1.337-5.497c-1.149-1.888-3.612-2.486-5.497-1.337c-0.086,0.053-8.717,5.126-16.493,3.23   c-2.149-0.521-4.311,0.793-4.834,2.939C285.101,145.396,286.416,147.56,288.563,148.083z"/><path d="M210.904,140.327c0.795,0,1.599-0.236,2.299-0.729c6.554-4.613,16.34-3.05,16.526-3.019c2.17,0.376,4.24-1.079,4.621-3.252   c0.381-2.176-1.075-4.249-3.251-4.63c-0.532-0.093-13.171-2.211-22.502,4.359c-1.807,1.271-2.239,3.768-0.968,5.573   C208.409,139.736,209.646,140.327,210.904,140.327z"/><path d="M249.354,192.348c0.643,0,1.296-0.156,1.901-0.483c3.043-1.649,6.226-2.855,9.46-3.586   c3.223-0.731,6.606-1.01,10.057-0.817c2.204,0.114,4.093-1.57,4.213-3.775c0.12-2.206-1.57-4.092-3.775-4.213   c-4.192-0.226-8.318,0.109-12.261,1.003c-3.946,0.892-7.816,2.356-11.504,4.354c-1.942,1.052-2.664,3.479-1.611,5.422   C246.557,191.589,247.933,192.348,249.354,192.348z"/><path d="M483.62,450.937c-10.263,0-18.505,5.055-20.077,11.872c-3.458-1.87-7.839-2.982-12.673-2.982   c-11.428,0-20.38,6.167-20.38,14.04v18.08c0,6.858,8.762,12.03,20.38,12.03c10.816,0,19.146-4.484,20.247-10.636   c3.407,1.541,7.704,2.446,12.503,2.446c11.618,0,20.38-5.24,20.38-12.189v-18.42C504,457.192,495.048,450.937,483.62,450.937z    M483.62,458.937c7.086,0,12.38,3.295,12.38,6.24s-5.294,6.24-12.38,6.24c-7.08,0-12.37-3.295-12.37-6.24   S476.54,458.937,483.62,458.937z M450.87,467.827c6.972,0,12.38,3.247,12.38,6.04s-5.408,6.04-12.38,6.04s-12.38-3.247-12.38-6.04   S443.898,467.827,450.87,467.827z"/><path d="M393.623,438.567H500c2.209,0,4-1.791,4-4s-1.791-4-4-4H389.622l-3.035-6.069c-0.677-1.355-2.063-2.211-3.577-2.211h-2.37   v-10.729c0-10.167-1.289-20.301-3.829-30.125c-0.001-0.004-0.002-0.009-0.003-0.013c-0.006-0.023-0.01-0.045-0.016-0.068   c-4.845-18.658-14.138-35.732-26.929-49.574c19.696-30.94,49.21-91.398,40.157-165.657c-0.437-3.559-4.671-35.768-18.707-70.422   c-18.399-45.424-44.736-74.874-78.286-87.535c-10.358-3.911-41.887-15.812-73.098-0.736c-20.262,9.799-31.805,26.499-38.041,39.316   c-12.438,5.005-23.139,12.098-31.826,21.097c-34.555,35.818-27.474,91.69-24.07,118.54c4.549,35.976,14.811,59.395,24.733,82.042   c9.557,21.811,18.591,42.444,22.944,73.67c-12.482,12.707-23.362,27.774-32.345,44.826c-5.735,10.851-10.793,22.743-15.074,35.369   h-5.26c-1.515,0-2.9,0.855-3.577,2.211l-3.035,6.069H4c-2.209,0-4,1.791-4,4s1.791,4,4,4h106.377l-29.815,59.621   c-0.62,1.24-0.555,2.713,0.175,3.892c0.729,1.18,2.016,1.897,3.402,1.897h61.398c0.005,0,0.01,0.001,0.014,0.001   c0.004,0,0.008-0.001,0.012-0.001h36.828c0.005,0,0.009,0.001,0.014,0.001c0.004,0,0.007-0.001,0.011-0.001h139.168   c0.004,0,0.007,0.001,0.011,0.001c0.004,0,0.009-0.001,0.014-0.001h36.828c0.004,0,0.008,0.001,0.012,0.001   c0.005,0,0.01-0.001,0.014-0.001h40.916c0.005,0,0.009,0.001,0.014,0.001c0.003,0,0.006-0.001,0.009-0.001h20.459   c1.387,0,2.674-0.718,3.402-1.897c0.729-1.179,0.795-2.651,0.175-3.892L393.623,438.567z M364.784,422.287L341.94,378.12   c4.706-0.153,9.39,0.318,13.98,1.433c4.752,1.162,9.288,2.978,13.512,5.393c2.12,8.697,3.208,17.638,3.208,26.611v10.729H364.784z    M239.479,328.233c3.385,0.506,6.614,1.84,9.358,3.873c0.047,0.034,0.098,0.069,0.152,0.106c2.666,2.011,4.762,4.85,6.155,8.278   l-6.156,7.084l-14.127-10.742c0.27-3.069,0.43-6.165,0.462-9.268L239.479,328.233z M287.393,422.287l-23.721-81.633   c-0.052-0.183-0.106-0.365-0.168-0.548c-1.841-5.977-5.221-10.936-9.762-14.329c-0.067-0.052-0.142-0.104-0.222-0.158   c-3.763-2.771-8.207-4.604-12.815-5.291l-21.565-3.469c-1.177-0.19-2.21-0.887-2.834-1.91c-0.632-1.036-0.768-2.259-0.385-3.435   c0.589-1.795,2.719-2.931,4.87-2.588l0.003,0c0.002,0,0.004,0,0.006,0l12.034,1.921c2.186,0.342,4.231-1.144,4.577-3.325   c0.345-2.183-1.144-4.231-3.325-4.577l-12.019-1.918c-0.002,0-0.005,0-0.007-0.001l-4.461-0.718   c-2.21-0.358-3.726-2.449-3.38-4.653c0.313-1.969,1.979-3.398,3.96-3.398c0.233,0,0.455,0.017,0.654,0.049l0.001,0   c0.001,0,0.001,0,0.002,0l12.459,2c2.178,0.356,4.232-1.135,4.583-3.315c0.351-2.182-1.135-4.233-3.315-4.583l-12.448-1.998   c-0.002,0-0.004,0-0.006-0.001c-0.002,0-0.003-0.001-0.005-0.001l-4.045-0.65c-2.206-0.352-3.717-2.441-3.367-4.661   c0.308-1.964,1.972-3.389,3.958-3.389c0.232,0,0.456,0.017,0.656,0.049l16.047,2.573l0.878,0.281   c2.108,0.663,4.354-0.499,5.021-2.605c0.667-2.106-0.5-4.354-2.605-5.021l-1.206-0.386c-7.698-2.471-14.116-5.063-18.56-7.499   c-8.229-4.512-15.698-10.35-22.202-17.354c-0.935-1.007-1.369-2.392-1.193-3.794c0.135-1.061,0.633-2.068,1.396-2.832l0.305-0.305   c1.843-1.843,4.837-1.855,6.816-0.021c8.4,7.764,17.671,14.194,27.551,19.112c9.43,4.7,18.315,9.13,30.618,8.606   c11.313-0.491,19.625-5.029,26.299-8.674c7.555-4.115,14.517-9.422,20.698-15.777c1.793-1.849,4.658-2.39,6.875-1.279   c1.489,0.747,2.558,2.042,3.008,3.646c0.45,1.601,0.213,3.26-0.665,4.667l-12.313,19.694c-1.938,3.109-2.936,6.706-2.885,10.388   c0.043,4.192-0.217,8.398-0.774,12.505c-0.43,3.186-1.03,6.34-1.787,9.376c-1.162,4.66-0.631,9.5,1.498,13.636l55.65,107.592   H287.393z M165.768,175.45c1.784,15.638,4.526,29.816,8.042,41.573c-6.514-1.477-12.52-7.053-15.365-14.786   C154.462,191.399,157.757,179.843,165.768,175.45z M183.162,219.996c-0.021-0.061-0.041-0.125-0.062-0.186   c-0.01-0.024-0.015-0.051-0.025-0.075c-4.36-12.767-7.799-29.977-9.733-48.641c9.422-13.824,16.12-28.963,19.901-45.03   c4.602-19.53,4.214-37.453,1.787-52.469c7.671,9.729,16.456,17.523,26.272,23.29c13.526,7.952,25.475,10.046,38.123,12.263   c13.53,2.371,28.866,5.059,49.843,15.481c10.479,5.21,22.255,12.321,30.135,25.564c3.618,6.075,6.082,12.828,7.341,20.071   c-1.915,18.972-5.392,36.493-9.812,49.447c-0.039,0.091-0.062,0.189-0.094,0.284c0,0,0,0,0,0.001   c-1.972,5.728-4.093,10.499-6.307,14.181c-1.59,2.647-3.549,5.378-5.771,8.107c-0.002-0.006-0.003-0.013-0.004-0.02   c-1.052-3.742-3.647-6.888-7.126-8.634c-1.888-0.944-4-1.443-6.11-1.443c-3.759,0-7.437,1.569-10.087,4.301   c-5.617,5.775-11.938,10.596-18.79,14.328c-6.567,3.586-13.358,7.294-22.816,7.705c-10.204,0.439-17.854-3.365-26.704-7.775   c-9.202-4.58-17.845-10.578-25.684-17.823c-5.146-4.764-13.009-4.661-17.902,0.231l-0.306,0.306   c-0.038,0.038-0.071,0.079-0.108,0.117C187.034,229.98,185.031,225.423,183.162,219.996z M354.232,175.45   c8.011,4.391,11.306,15.948,7.324,26.785c-2.846,7.732-8.862,13.312-15.367,14.789C349.706,205.267,352.448,191.089,354.232,175.45   z M223.409,14.628c28.121-13.581,57.228-2.592,66.799,1.021c31.37,11.839,56.163,39.781,73.689,83.053   c13.65,33.701,17.759,64.941,18.182,68.39c8.605,70.595-18.914,128.414-37.993,158.849c-1.41-1.323-2.868-2.625-4.37-3.893   l-0.175-0.149c-0.155-0.133-0.313-0.267-0.404-0.339c-9.882-8.264-20.656-15.519-32.045-21.624c0.503-2.359,0.927-4.762,1.252-7.18   c0.608-4.484,0.894-9.08,0.847-13.673c-0.03-2.16,0.549-4.255,1.671-6.056l8.503-13.599c7.419-6.636,13.811-14.118,18.025-21.131   c2.114-3.517,4.125-7.844,5.998-12.874c10.943-0.239,21.192-8.244,25.677-20.427c5.724-15.577-0.33-32.511-13.493-37.745   c-0.434-0.173-0.878-0.331-1.339-0.477c-1.521-7.411-4.192-14.355-7.955-20.674c-8.94-15.024-21.925-22.906-33.447-28.636   c-22.016-10.938-37.958-13.732-52.023-16.197c-12.433-2.18-23.171-4.061-35.45-11.28c-14.523-8.531-26.643-22.048-36.062-40.165   C195.008,38.227,205.411,23.333,223.409,14.628z M133.928,185.374c-3.246-25.616-10.003-78.921,21.891-111.979   c7.318-7.582,16.253-13.679,26.584-18.18c5.367,16.67,9.629,41.11,3.054,69.016c-3.544,15.061-9.811,29.265-18.635,42.242   c-0.846,0.22-1.636,0.477-2.39,0.777c-13.166,5.235-19.22,22.169-13.495,37.748c4.483,12.179,14.738,20.161,25.671,20.409   c1.875,5.037,3.888,9.369,6.004,12.889c0.833,1.387,1.776,2.821,2.851,4.348c0.019,3.169,1.192,6.214,3.356,8.544   c6.587,7.093,14.099,13.078,22.337,17.843c-3.318,1.698-5.752,4.897-6.366,8.824c-0.667,4.237,0.976,8.31,3.979,10.952   c-1.243,1.576-2.112,3.479-2.45,5.599c-0.666,4.241,0.99,8.323,4.014,10.968c-0.877,1.07-1.571,2.297-2.016,3.653   c-1.104,3.392-0.682,7.067,1.159,10.087c1.843,3.021,4.898,5.076,8.389,5.642l9.468,1.523c0,4.013-0.205,8.026-0.63,11.973   c-0.535,5.007-1.425,10.033-2.645,14.942c-1.415,5.71-3.285,11.3-5.59,16.716l-4.355-25.4c-0.33-1.921-1.995-3.323-3.942-3.323   c-0.008,0-0.016,0-0.023,0c-1.957,0.012-3.618,1.438-3.927,3.37c-1.857,11.646-5.507,22.884-10.845,33.396   c-3.27,6.429-7.148,12.523-11.585,18.216c0.685-12.651,0.557-25.44-0.381-38.039c-0.385-5.166-0.904-10.264-1.543-15.155   C177.473,309.532,167.6,287,158.053,265.21C148.357,243.083,138.332,220.205,133.928,185.374z M147.445,392.509   c4.756-0.451,11.307-0.295,18.375,2.184c3.432,1.201,6.697,2.849,9.736,4.901c-0.183,2.701-0.389,5.369-0.636,7.929   c-0.008,0.081-0.001,0.161-0.004,0.242c-0.002,0.048-0.014,0.094-0.014,0.142v14.38h-40.2   C138.405,411.724,142.682,401.745,147.445,392.509z M325.069,495.977l-2.952-20.66h25.126l5.904,20.66H325.069z M189.964,475.317   h22.939l-1.478,20.66h-24.413L189.964,475.317z M256,475.317h27.075l1.478,20.66H256V475.317z M353.277,467.317l-5.904-20.66   h20.885l10.33,20.66H353.277z M309.941,446.657l2.952,20.66h-22.368l-1.478-20.66H309.941z M248,467.317h-26.503l1.478-20.66H248   V467.317z M183.026,467.317h-23.983l5.904-20.66h21.031L183.026,467.317z M121.413,475.317h27.024l-5.904,20.66h-31.45   L121.413,475.317z M401.862,495.977l-27.554-55.109c-0.678-1.354-2.063-2.211-3.578-2.211H133.27c-1.515,0-2.9,0.856-3.578,2.211   l-27.554,55.109H90.612l32.85-65.69h5.251c0.133,0.013,0.261,0.04,0.397,0.04c0.163,0,0.32-0.021,0.477-0.04h154.788   c0.004,0,0.008,0.001,0.012,0.001c0.005,0,0.009-0.001,0.014-0.001h77.937c0.005,0,0.01,0.001,0.014,0.001   c0.006,0,0.011-0.001,0.017-0.001h18.169l32.85,65.69H401.862z"/><path d="M53.13,459.827c-4.834,0-9.215,1.113-12.673,2.982c-1.573-6.817-9.814-11.872-20.077-11.872   c-11.428,0-20.38,6.255-20.38,14.24v18.42c0,6.949,8.762,12.189,20.38,12.189c4.799,0,9.096-0.905,12.503-2.446   c1.101,6.152,9.432,10.636,20.247,10.636c11.618,0,20.38-5.172,20.38-12.03v-18.08C73.51,465.994,64.558,459.827,53.13,459.827z    M53.13,467.827c6.972,0,12.38,3.247,12.38,6.04s-5.408,6.04-12.38,6.04s-12.38-3.247-12.38-6.04S46.158,467.827,53.13,467.827z    M20.38,458.937c7.08,0,12.37,3.295,12.37,6.24s-5.29,6.24-12.37,6.24c-7.086,0-12.38-3.295-12.38-6.24   S13.294,458.937,20.38,458.937z"/></g><text x="0" y="518.9780000000001" fill="#000000" font-size="5px" font-weight="bold" font-family="'Helvetica Neue', Helvetica, Arial-Unicode, Arial, Sans-serif">Created by Amethyst Studio</text><text x="0" y="523.9780000000001" fill="#000000" font-size="5px" font-weight="bold" font-family="'Helvetica Neue', Helvetica, Arial-Unicode, Arial, Sans-serif">from the Noun Project</text></svg>